<?xml version="1.0" encoding="UTF-8" standalone="no"?>
<!-- Created with Inkscape (http://www.inkscape.org/) -->

<svg
   width="793.70099"
   height="170"
   viewBox="0 0 793.70101 170.00001"
   version="1.1"
   id="svg1"
   xml:space="preserve"
   xmlns="http://www.w3.org/2000/svg"
   xmlns:svg="http://www.w3.org/2000/svg"><defs
     id="defs1"><style
       id="style1">.a{fill:#88171a;}.b{fill:#231f20;}</style></defs><g
     id="layer1"
     style="display:inline"><g
       id="g39"
       transform="matrix(0.51466863,0,0,0.51466863,525.21715,7.79971)"
       style="display:inline"><path
         class="a"
         d="M 301.28,145.56 C 301.28,145.56 308.2196,0 148.24,0 6.76,0 2.34,139.63 2.34,139.63 2.34,139.63 -18.471,300 151.5,300 314.52,300 301.28,145.56 301.28,145.56 Z M 103.48,94.697 c 30.017,-18.364 68.366,-7.1401 82.735,20.476 2.7233,5.2338 3.0694,13.291 1.3447,18.782 -5.9546,18.956 -20.014,29.587 -39.312,34.103 5.6892,-4.8707 10.218,-10.394 11.659,-18.025 a 26.402,26.402 0 0 0 -4.5425,-20.956 26.76,26.76 0 0 0 -30.811,-9.3892 c -11.881,4.5111 -18.389,15.354 -17.216,28.683 1.0898,12.381 10.484,20.405 28.061,23.453 -2.627,1.3904 -4.6503,2.4144 -6.6299,3.5172 a 63.918,63.918 0 0 0 -20.544,17.868 c -1.7839,2.4084 -3.0104,2.6024 -5.727,0.94116 -35.338,-21.61 -37.609,-75.844 0.98226,-99.453 z m -26.449,133.53 c -5.6769,1.441 -11.178,3.5742 -16.981,5.4775 2.8385,-19.151 25.265,-36.788 44.23,-34.776 a 48.881,48.881 0 0 0 -9.242,25.893 c -6.302,1.1606 -12.241,1.9414 -18.007,3.405 z m 120.79,-186.98 c 5.6099,0.20612 11.23,0.12091 16.844,0.25378 a 29.052,29.052 0 0 1 4.1674,0.58069 40.607,40.607 0 0 1 -4.2357,5.4332 c -2.007,1.8701 -4.2745,3.6986 -7.1661,0.856 -0.6955,-0.68372 -2.3386,-0.52679 -3.5487,-0.54272 -5.5823,-0.07336 -11.172,-0.25177 -16.746,-0.04132 a 104.04,104.04 0 0 0 -14.425,1.473 c -0.89368,0.16046 -2.2299,3.1315 -1.8191,4.227 0.9693,2.5853 2.3833,5.4363 4.4779,7.0898 7.7403,6.11 15.972,11.596 23.748,17.664 7.556,5.8966 14.589,12.358 18.875,21.253 5.5843,11.59 5.747,23.743 3.3388,35.95 -4.0203,20.378 -14.333,37.261 -31.032,49.524 -6.7288,4.941 -15.06,7.7451 -22.767,11.295 -6.778,3.1225 -13.755,5.8115 -20.549,8.9008 -12.249,5.5695 -19.133,18.865 -17.108,32.688 1.8585,12.685 12.987,23.271 25.735,25.456 15.292,2.6216 31.071,-7.3163 34.812,-22.86 4.2067,-17.478 -5.2898,-33.083 -23.065,-37.813 -0.78271,-0.20831 -1.5684,-0.40552 -3.2012,-0.8269 4.7549,-2.1245 8.8614,-3.6381 12.653,-5.7244 q 9.9213,-5.4594 19.481,-11.562 c 1.8742,-1.199 2.8868,-1.1996 4.4852,0.18225 12.225,10.57 19.518,23.718 21.563,39.839 3.3845,26.684 -9.2471,51.198 -33.072,63.762 -36.86,19.439 -81.965,-2.6864 -90.106,-43.552 -6.9738,-35.003 17.73,-66.754 47.462,-72.884 12.787,-2.6364 24.48,-7.9596 33.57,-17.807 5.8652,-6.3541 8.7084,-11.806 9.6772,-14.266 a 39.565,39.565 0 0 0 2.7211,-14.469 33.867,33.867 0 0 0 -2.9654,-12.398 c -3.104,-7.075 -14.995,-18.33 -17.939,-20.704 l -28,-21.921 c -0.98761,-0.81256 -2.0994,-0.75366 -4.5079,-0.59045 -2.8611,0.19391 -10.175,0.59888 -13.331,-0.22815 2.553,-1.9321 9.5132,-4.7451 12.502,-7.007 -9.0734,-6.1297 -19.43,-3.9158 -28.941,-5.7461 2.1992,-4.0959 13.081,-10.39 19.27,-11.091 a 91.533,91.533 0 0 0 -1.6876,-10.281 c -0.37781,-1.3917 -1.9312,-2.7408 -3.2864,-3.5355 -3.286,-1.9267 -6.7694,-3.5167 -10.549,-5.4327 a 21.936,21.936 0 0 1 11.332,-3.5055 42.316,42.316 0 0 1 11.348,1.1056 c 6.7422,1.5405 12.124,0.53491 17.488,-4.048 -4.222,-1.7002 -8.4435,-3.2535 -12.538,-5.0907 a 123.04,123.04 0 0 1 -11.779,-6.1583 c 10.622,1.4755 20.896,5.4585 31.757,4.0034 q 0.1387,-0.74048 0.27728,-1.4809 c -8.1194,-1.8899 -16.239,-3.7798 -25.229,-5.8724 15.04,-1.3769 29.042,-1.604 42.301,4.8541 3.731,1.8173 7.6348,3.3215 11.211,5.3972 1.7443,1.0124 2.9186,3.0078 4.3496,4.5594 1.1366,1.2325 2.0495,2.8837 3.446,3.6264 5.3,2.8184 11.134,2.9291 17.078,2.7879 0.0444,-0.67694 0.0861,-1.3114 0.1308,-1.9933 5.9821,1.8693 12.715,8.7679 12.704,13.806 -9.6911,0 -19.374,-0.037 -29.056,0.05389 -1.0348,0.0097 -2.0626,0.76563 -3.0936,1.1754 0.97986,0.57067 1.9428,1.5994 2.9423,1.6362 z"
         id="path37"
         transform="translate(-1.5394)" /><path
         class="a"
         transform="translate(-1.5394)"
         d="m 185.32,26.906 a 1.4806,1.4806 0 0 0 -0.18927,2.3686 2.2326,2.2326 0 0 0 3.0724,0.8219 c 0.9328,-0.47052 1.8478,-0.97137 2.975,-1.5665 -0.9079,-0.775 -1.6362,-1.4148 -2.3857,-2.0324 -1.318,-1.086 -2.411,-0.40386 -3.4724,0.40833 z"
         id="path38" /></g><g
       style="clip-rule:evenodd;display:inline;fill-rule:evenodd;stroke-linecap:round;stroke-linejoin:round;stroke-miterlimit:4.62209"
       id="g1"
       transform="matrix(0.05146732,0,0,0.05146732,131.19148,7.79901)"><g
         id="g17"
         transform="matrix(1.6054268,0,0,1.6054268,-508.25889,-151.07168)"><g
           id="g9"><path
             d="m 417.183,1812.05 c 9.19,2.732 16.766,8.072 22.727,16.02 5.961,7.949 9.314,19.002 10.06,33.16 0.745,13.412 1.304,25.956 1.676,37.63 0.373,11.674 0.683,24.217 0.932,37.63 0.248,6.955 -1.801,12.419 -6.148,16.393 -4.347,3.974 -9.997,6.21 -16.952,6.706 -6.706,0.497 -12.543,-1.241 -17.511,-5.216 -4.968,-3.974 -7.824,-9.19 -8.569,-15.648 -0.497,-4.471 -0.683,-9.128 -0.559,-13.971 0.124,-4.844 0.062,-9.749 -0.186,-14.717 -0.497,-8.197 -0.87,-15.586 -1.118,-22.168 -0.249,-6.582 -0.87,-13.848 -1.863,-21.796 -0.745,-7.7 -3.85,-13.102 -9.314,-16.207 -5.465,-3.105 -12.42,-5.278 -20.865,-6.52 -0.248,1.739 -0.434,3.415 -0.559,5.03 -0.124,1.614 -0.186,3.167 -0.186,4.657 -0.248,11.922 -0.372,23.721 -0.372,35.395 v 35.767 c 0,2.484 -0.062,4.781 -0.187,6.892 -0.124,2.112 -0.31,4.161 -0.559,6.148 -1.241,8.197 -4.408,14.158 -9.5,17.884 -5.092,3.725 -11.612,5.34 -19.56,4.843 -6.955,-0.497 -12.357,-3.105 -16.207,-7.824 -3.85,-4.719 -5.775,-10.929 -5.775,-18.629 0.745,-37.754 1.055,-75.012 0.931,-111.772 -0.124,-36.761 -0.31,-73.646 -0.559,-110.655 v -58.494 c 0,-9.439 2.981,-16.456 8.942,-21.051 5.961,-4.595 13.661,-6.147 23.1,-4.657 7.451,1.242 14.654,1.49 21.609,0.745 15.648,-0.993 29.123,1.677 40.424,8.01 11.302,6.334 20.678,16.208 28.13,29.62 15.4,26.577 19.25,54.893 11.55,84.947 -2.733,11.674 -6.831,22.665 -12.295,32.973 -5.465,10.308 -12.544,19.933 -21.237,28.875 z m -48.062,-32.042 c 5.216,0.249 9.749,-1.242 13.599,-4.471 3.85,-3.229 7.017,-7.203 9.5,-11.922 2.484,-4.719 4.471,-9.687 5.962,-14.903 1.49,-5.216 2.608,-9.935 3.353,-14.158 1.987,-9.438 2.297,-18.38 0.931,-26.825 -1.366,-8.445 -4.657,-16.766 -9.873,-24.963 -5.961,-8.942 -13.785,-11.798 -23.472,-8.569 z"
             style="fill-rule:nonzero"
             id="path1" /><path
             d="m 485.364,1679.41 c 1.49,-7.451 4.036,-14.406 7.638,-20.864 3.602,-6.458 8.072,-12.171 13.413,-17.139 5.34,-4.967 11.363,-9.066 18.07,-12.295 6.706,-3.229 14.033,-5.34 21.981,-6.333 7.204,-0.994 14.22,-0.497 21.051,1.49 6.831,1.987 13.351,4.843 19.56,8.569 11.177,7.7 19.498,16.518 24.963,26.453 5.464,9.935 9.19,20.864 11.177,32.787 1.49,8.693 2.546,17.324 3.167,25.894 0.621,8.569 1.18,17.2 1.676,25.894 1.242,22.106 1.925,44.274 2.05,66.504 0.124,22.23 -1.056,44.275 -3.54,66.132 -0.993,8.445 -2.422,16.518 -4.285,24.218 -1.862,7.699 -4.532,15.151 -8.01,22.354 -4.471,9.19 -9.811,16.704 -16.021,22.541 -6.209,5.837 -13.04,10.122 -20.491,12.854 -7.452,2.732 -15.338,4.16 -23.659,4.284 -8.321,0.125 -16.579,-0.931 -24.776,-3.167 -11.177,-2.235 -20.181,-7.078 -27.012,-14.53 -6.83,-7.451 -11.984,-15.896 -15.462,-25.335 -3.477,-8.197 -5.961,-16.518 -7.451,-24.963 -1.49,-8.445 -2.484,-17.138 -2.981,-26.08 -0.496,-15.896 -0.869,-31.855 -1.117,-47.876 -0.249,-16.02 -0.187,-31.917 0.186,-47.689 0.373,-15.773 1.304,-31.483 2.794,-47.131 1.491,-15.648 3.85,-31.172 7.079,-46.572 z m 88.673,24.59 c -0.745,-10.68 -3.105,-18.505 -7.079,-23.472 -3.974,-4.968 -8.197,-7.39 -12.667,-7.265 -4.471,0.124 -8.694,2.732 -12.668,7.824 -3.974,5.092 -6.458,12.357 -7.451,21.795 -1.491,16.89 -2.609,32.973 -3.354,48.249 -0.745,15.275 -1.242,30.116 -1.49,44.522 -0.248,14.407 -0.31,28.378 -0.186,41.915 0.124,13.537 0.31,27.012 0.559,40.425 0,11.674 2.049,20.553 6.147,26.639 4.098,6.085 8.818,9.252 14.158,9.5 5.34,0.249 10.37,-2.484 15.089,-8.196 4.72,-5.713 7.7,-14.531 8.942,-26.453 2.981,-31.545 4.595,-61.723 4.844,-90.536 0.248,-28.812 -1.367,-57.128 -4.844,-84.947 z"
             style="fill-rule:nonzero"
             id="path2" /><path
             d="m 657.494,1839.25 c 0.497,-4.471 1.925,-8.321 4.284,-11.55 2.36,-3.229 5.279,-5.775 8.756,-7.638 3.477,-1.863 7.265,-2.794 11.363,-2.794 4.099,0 8.135,0.993 12.109,2.98 8.694,4.471 13.04,11.674 13.04,21.61 v 39.12 c 0,5.216 0.373,10.432 1.118,15.648 1.49,9.19 6.831,13.91 16.021,14.158 2.98,0.249 5.464,-0.31 7.451,-1.676 1.987,-1.367 3.54,-3.105 4.657,-5.217 1.118,-2.111 1.925,-4.47 2.422,-7.078 0.497,-2.608 0.745,-5.03 0.745,-7.266 -0.496,-6.458 -0.931,-13.102 -1.304,-19.932 -0.372,-6.831 -0.807,-13.599 -1.304,-20.306 -0.496,-7.7 -2.608,-14.53 -6.333,-20.491 -3.726,-5.962 -8.694,-11.302 -14.903,-16.021 -5.217,-4.223 -10.246,-8.383 -15.09,-12.481 -4.843,-4.099 -9.997,-8.135 -15.462,-12.109 -24.093,-17.138 -35.394,-40.487 -33.904,-70.044 0.497,-4.968 0.807,-9.998 0.931,-15.089 0.125,-5.092 0.435,-10.37 0.932,-15.835 0.745,-7.451 2.608,-14.717 5.589,-21.796 2.98,-7.078 6.892,-13.536 11.736,-19.373 4.843,-5.837 10.432,-10.557 16.766,-14.158 6.333,-3.602 13.226,-5.651 20.677,-6.148 6.458,-0.248 12.854,-0.248 19.188,0 6.334,0.249 12.606,1.242 18.815,2.981 11.923,3.229 20.989,9.066 27.198,17.511 6.21,8.445 10.308,18.38 12.295,29.806 1.242,8.445 1.987,17.076 2.236,25.894 0.248,8.817 0.372,17.573 0.372,26.266 0,6.955 -2.422,12.668 -7.265,17.139 -4.844,4.471 -10.743,6.706 -17.697,6.706 -6.458,0 -12.109,-2.111 -16.953,-6.334 -4.843,-4.222 -7.513,-9.811 -8.01,-16.765 -0.497,-5.465 -0.807,-10.743 -0.931,-15.835 -0.125,-5.092 -0.311,-10.122 -0.559,-15.089 -0.249,-1.49 -0.373,-2.981 -0.373,-4.471 0,-1.49 -0.124,-2.856 -0.372,-4.098 -1.491,-8.445 -5.837,-12.792 -13.041,-13.041 -4.719,-0.248 -8.755,0.559 -12.108,2.422 -3.353,1.863 -5.278,4.906 -5.775,9.128 -0.745,7.949 -1.18,15.773 -1.304,23.473 -0.124,7.699 0.062,15.523 0.559,23.472 0.248,2.235 1.366,4.533 3.353,6.892 1.987,2.36 3.974,4.533 5.961,6.52 4.968,3.975 9.998,7.887 15.089,11.737 5.092,3.849 10.246,7.762 15.462,11.736 28.564,20.615 43.467,48.559 44.709,83.829 0.249,8.197 0.559,16.269 0.932,24.217 0.372,7.949 0.683,16.021 0.931,24.218 0.248,7.203 -0.621,13.723 -2.608,19.56 -1.987,5.837 -4.719,10.929 -8.197,15.276 -3.477,4.346 -7.451,8.01 -11.922,10.991 -4.471,2.98 -9.066,5.216 -13.785,6.706 -9.687,3.229 -19.436,4.968 -29.247,5.216 -9.812,0.248 -19.436,-0.621 -28.875,-2.608 -10.432,-1.739 -19.125,-7.141 -26.08,-16.207 -6.955,-9.066 -10.929,-19.56 -11.923,-31.483 -0.745,-11.922 -0.931,-23.969 -0.558,-36.139 0.372,-12.171 0.434,-24.218 0.186,-36.14 z"
             style="fill-rule:nonzero"
             id="path3" /><path
             d="m 863.9,1832.17 c 0,5.961 -0.062,11.922 -0.186,17.883 -0.124,5.962 0.062,11.923 0.559,17.884 0.497,5.216 0.869,10.432 1.118,15.648 0.248,5.216 1.117,9.873 2.608,13.972 1.49,4.098 4.036,7.327 7.637,9.687 3.602,2.359 9.129,3.291 16.58,2.794 3.477,-0.248 7.203,-0.621 11.177,-1.118 3.974,-0.497 7.7,-0.745 11.178,-0.745 2.98,0 6.023,0.062 9.128,0.186 3.104,0.125 6.147,0.559 9.128,1.304 9.19,2.981 14.406,9.563 15.648,19.747 0.497,4.968 -0.373,9.252 -2.608,12.854 -2.236,3.601 -5.465,6.396 -9.687,8.383 -1.242,1.242 -2.794,2.111 -4.657,2.608 -1.863,0.496 -3.788,0.869 -5.775,1.117 -8.197,0.994 -16.828,1.863 -25.894,2.608 -9.066,0.746 -17.573,1.367 -25.522,1.863 -12.17,0.497 -22.168,-1.428 -29.992,-5.775 -7.824,-4.346 -13.971,-10.742 -18.442,-19.187 -4.471,-8.445 -7.7,-18.753 -9.687,-30.924 -1.987,-12.171 -3.229,-25.708 -3.726,-40.611 -0.745,-20.119 -0.869,-40.176 -0.373,-60.17 0.497,-19.995 0.994,-40.052 1.491,-60.171 0.497,-15.152 1.863,-29.993 4.098,-44.523 2.236,-14.53 6.21,-28.378 11.922,-41.542 7.949,-18.877 21.858,-28.688 41.729,-29.434 8.445,-0.248 17.387,-0.248 26.825,0 12.419,0.497 23.162,4.285 32.228,11.364 9.066,7.079 15.338,16.58 18.815,28.502 1.242,3.974 2.236,8.01 2.981,12.109 0.745,4.098 0.993,8.01 0.745,11.736 -0.497,14.903 -1.304,29.744 -2.422,44.522 -1.118,14.779 -2.297,29.496 -3.539,44.151 -0.249,2.235 -0.683,4.47 -1.304,6.706 -0.621,2.235 -1.304,4.471 -2.05,6.706 -7.203,22.106 -22.23,34.65 -45.081,37.63 -5.465,0.746 -11.053,1.18 -16.766,1.304 -5.713,0.125 -11.674,0.435 -17.884,0.932 z m 17.139,-49.18 c 3.229,0 5.775,-0.062 7.638,-0.186 1.862,-0.125 3.353,-0.621 4.471,-1.491 1.117,-0.869 1.862,-2.173 2.235,-3.912 0.373,-1.738 0.807,-4.098 1.304,-7.079 1.242,-9.19 2.173,-18.132 2.794,-26.825 0.621,-8.693 1.304,-17.511 2.049,-26.453 0.249,-4.471 0.435,-8.88 0.559,-13.226 0.125,-4.347 0.062,-8.632 -0.186,-12.854 -0.248,-2.981 -1.056,-5.589 -2.422,-7.824 -1.366,-2.236 -3.663,-3.726 -6.892,-4.471 -3.229,-0.745 -6.396,-0.807 -9.501,-0.186 -3.105,0.621 -5.651,2.421 -7.638,5.402 -1.242,1.49 -2.235,3.105 -2.98,4.843 -0.746,1.739 -1.242,3.602 -1.491,5.589 -2.98,14.655 -4.781,29.185 -5.402,43.591 -0.621,14.407 -1.18,29.434 -1.677,45.082 z"
             style="fill-rule:nonzero"
             id="path4" /><path
             d="m 1023.36,1642.9 c 6.955,-4.968 13.848,-8.632 20.678,-10.991 6.831,-2.36 13.972,-3.291 21.423,-2.795 11.426,1.242 20.865,4.409 28.316,9.501 7.452,5.092 13.475,11.426 18.07,19.001 4.595,7.576 7.886,15.959 9.873,25.149 1.987,9.19 3.105,18.505 3.353,27.943 0,23.597 -0.124,47.193 -0.372,70.79 -0.248,23.596 -0.497,47.192 -0.745,70.789 -0.249,13.413 -0.435,26.515 -0.559,39.307 -0.124,12.791 -0.311,25.769 -0.559,38.934 v 5.402 c 0,1.863 -0.124,3.788 -0.373,5.775 -1.241,6.706 -4.222,11.86 -8.941,15.462 -4.72,3.601 -10.308,5.278 -16.766,5.029 -6.458,-0.248 -11.798,-2.173 -16.021,-5.774 -4.222,-3.602 -6.831,-8.632 -7.824,-15.09 -0.497,-2.732 -0.745,-5.34 -0.745,-7.824 v -7.824 c 0.497,-28.316 0.993,-56.197 1.49,-83.643 0.497,-27.446 0.994,-55.452 1.49,-84.016 0.249,-9.19 0.187,-18.442 -0.186,-27.756 -0.372,-9.315 -0.807,-18.691 -1.304,-28.13 -0.248,-2.98 -0.745,-6.085 -1.49,-9.314 -0.745,-3.229 -1.925,-6.272 -3.54,-9.128 -1.614,-2.857 -3.663,-5.154 -6.147,-6.893 -2.484,-1.739 -5.34,-2.608 -8.569,-2.608 -4.968,0 -9.128,2.235 -12.482,6.706 -3.353,4.471 -6.085,9.687 -8.196,15.649 -2.112,5.961 -3.664,11.984 -4.657,18.069 -0.994,6.086 -1.615,10.867 -1.863,14.345 -0.497,7.948 -0.87,15.648 -1.118,23.099 -0.248,7.452 -0.497,15.152 -0.745,23.1 0,13.164 -0.062,26.328 -0.187,39.493 -0.124,13.164 0.063,26.204 0.559,39.12 0.497,13.164 1.118,25.397 1.863,36.699 0.745,11.301 1.366,23.286 1.863,35.953 0.248,2.484 0.373,5.03 0.373,7.638 0,2.608 -0.249,5.278 -0.745,8.01 -1.242,6.21 -4.285,11.116 -9.129,14.717 -4.843,3.602 -10.742,5.154 -17.697,4.657 -5.713,-0.496 -10.805,-2.67 -15.275,-6.52 -4.471,-3.85 -6.955,-9.004 -7.452,-15.462 -0.993,-13.412 -1.863,-26.204 -2.608,-38.375 -0.745,-12.171 -1.366,-25.335 -1.863,-39.493 -0.497,-13.661 -0.621,-27.446 -0.372,-41.356 0.248,-13.909 0.248,-27.943 0,-42.101 -0.249,-21.112 -0.497,-42.038 -0.746,-62.778 -0.248,-20.74 -0.496,-41.418 -0.745,-62.034 v -10.06 c 0.745,-6.458 2.981,-11.674 6.707,-15.648 3.725,-3.974 8.32,-6.458 13.785,-7.451 5.961,-0.994 11.426,-0.125 16.393,2.608 4.968,2.732 8.694,7.203 11.177,13.412 0.746,1.491 1.615,3.726 2.608,6.707 z"
             style="fill-rule:nonzero"
             id="path5" /><path
             d="m 1200.71,1863.46 c 0.249,6.21 0.435,12.047 0.559,17.511 0.124,5.465 0.248,10.805 0.373,16.021 0.124,5.216 0.248,10.432 0.372,15.648 0.124,5.216 0.311,10.805 0.559,16.766 0,1.987 0.062,3.788 0.186,5.402 0.125,1.615 0.062,3.291 -0.186,5.03 -0.745,5.961 -3.167,10.867 -7.265,14.717 -4.098,3.85 -9.128,6.147 -15.089,6.892 -6.21,0.497 -11.737,-0.745 -16.58,-3.725 -4.844,-2.981 -8.135,-7.204 -9.873,-12.668 -1.491,-2.981 -2.236,-6.831 -2.236,-11.55 -0.496,-43.218 -0.993,-85.257 -1.49,-126.116 -0.497,-40.859 -0.994,-82.774 -1.49,-125.744 -0.249,-4.471 -0.435,-8.942 -0.559,-13.413 -0.124,-4.471 -0.062,-8.942 0.186,-13.413 0.248,-9.438 2.857,-16.642 7.824,-21.609 4.968,-4.968 12.171,-7.452 21.61,-7.452 12.419,0.249 25.21,1.366 38.375,3.353 9.438,1.491 17.759,4.72 24.962,9.687 7.203,4.968 13.413,11.302 18.629,19.002 5.713,7.451 10.122,15.399 13.226,23.845 3.105,8.445 5.279,17.386 6.521,26.825 1.738,13.413 2.359,26.577 1.862,39.493 -0.496,12.916 -2.732,26.08 -6.706,39.493 -3.477,13.909 -9.128,26.142 -16.952,36.698 -7.824,10.557 -17.822,19.312 -29.992,26.267 -3.975,2.732 -8.259,4.968 -12.854,6.706 -4.595,1.739 -9.253,3.85 -13.972,6.334 z m -1.118,-189.641 c -0.745,23.1 -1.055,45.889 -0.931,68.368 0.124,22.479 0.559,45.392 1.304,68.74 7.948,-4.471 13.847,-9.997 17.697,-16.58 3.85,-6.582 6.645,-13.599 8.383,-21.05 2.733,-9.935 4.223,-19.995 4.471,-30.179 0.249,-10.183 -0.372,-20.491 -1.863,-30.923 -0.745,-5.216 -1.925,-10.246 -3.539,-15.09 -1.615,-4.843 -4.036,-9.376 -7.265,-13.599 -1.987,-2.732 -4.409,-4.967 -7.266,-6.706 -2.856,-1.739 -6.52,-2.732 -10.991,-2.981 z"
             style="fill-rule:nonzero"
             id="path6" /><path
             d="m 1403.76,1739.02 c 0.496,-9.19 0.621,-18.442 0.372,-27.757 -0.248,-9.314 -1.614,-18.442 -4.098,-27.384 -1.242,-4.968 -4.533,-8.756 -9.873,-11.364 -5.341,-2.608 -10.991,-3.291 -16.953,-2.049 -3.725,0.994 -7.513,1.677 -11.363,2.049 -3.85,0.373 -7.638,-0.062 -11.364,-1.304 -4.471,-1.738 -8.072,-4.098 -10.804,-7.079 -2.733,-2.98 -4.099,-6.83 -4.099,-11.549 -0.496,-9.936 4.099,-16.766 13.786,-20.492 8.196,-3.477 16.765,-5.837 25.707,-7.079 8.445,-0.993 16.766,-0.435 24.963,1.677 8.196,2.111 15.648,5.402 22.354,9.873 6.707,4.471 12.482,9.873 17.325,16.207 4.844,6.334 8.135,13.351 9.873,21.05 1.491,6.707 2.67,13.475 3.54,20.306 0.869,6.83 1.18,13.723 0.931,20.678 -0.497,24.341 -1.118,48.372 -1.863,72.093 -0.745,23.721 -1.614,47.627 -2.608,71.721 -0.496,10.68 -0.745,21.174 -0.745,31.482 0,10.308 -0.124,20.802 -0.372,31.483 -0.249,2.484 -0.435,4.967 -0.559,7.451 -0.124,2.484 -0.311,5.092 -0.559,7.824 -1.242,5.713 -3.664,10.432 -7.265,14.158 -3.602,3.726 -8.135,6.086 -13.599,7.079 -13.165,1.739 -26.019,2.546 -38.562,2.422 -12.543,-0.124 -24.9,-1.801 -37.071,-5.03 -13.413,-2.732 -24.155,-8.321 -32.228,-16.766 -8.072,-8.445 -12.978,-19.249 -14.717,-32.414 -4.47,-37.257 -1.862,-74.763 7.825,-112.517 2.235,-7.452 5.464,-14.903 9.686,-22.355 6.707,-11.922 16.518,-21.05 29.434,-27.384 12.916,-6.334 26.701,-8.507 41.356,-6.52 1.987,0.248 3.85,0.497 5.588,0.745 1.739,0.248 3.726,0.497 5.962,0.745 z m -2.236,49.18 c -0.993,-0.497 -1.801,-0.869 -2.422,-1.118 -0.621,-0.248 -1.179,-0.621 -1.676,-1.117 -18.629,-8.197 -30.924,-2.981 -36.885,15.648 -0.249,0.496 -0.373,1.055 -0.373,1.676 0,0.621 -0.124,1.304 -0.372,2.049 -3.478,12.668 -5.589,25.211 -6.334,37.63 -0.745,12.42 -1.118,25.087 -1.118,38.003 -0.248,2.981 -0.124,6.023 0.373,9.128 0.497,3.105 0.993,6.272 1.49,9.501 0.745,9.19 5.713,14.034 14.903,14.53 4.719,0.497 9.439,0.683 14.158,0.559 4.719,-0.124 9.563,-0.186 14.53,-0.186 0.497,-21.113 1.118,-41.977 1.863,-62.593 0.745,-20.616 1.366,-41.852 1.863,-63.71 z"
             style="fill-rule:nonzero"
             id="path7" /><path
             d="m 1480.88,1839.25 c 0.496,-4.471 1.925,-8.321 4.284,-11.55 2.36,-3.229 5.278,-5.775 8.756,-7.638 3.477,-1.863 7.265,-2.794 11.363,-2.794 4.099,0 8.135,0.993 12.109,2.98 8.693,4.471 13.04,11.674 13.04,21.61 v 39.12 c 0,5.216 0.373,10.432 1.118,15.648 1.49,9.19 6.83,13.91 16.021,14.158 2.98,0.249 5.464,-0.31 7.451,-1.676 1.987,-1.367 3.539,-3.105 4.657,-5.217 1.118,-2.111 1.925,-4.47 2.422,-7.078 0.497,-2.608 0.745,-5.03 0.745,-7.266 -0.497,-6.458 -0.931,-13.102 -1.304,-19.932 -0.373,-6.831 -0.807,-13.599 -1.304,-20.306 -0.497,-7.7 -2.608,-14.53 -6.334,-20.491 -3.725,-5.962 -8.693,-11.302 -14.903,-16.021 -5.216,-4.223 -10.246,-8.383 -15.089,-12.481 -4.843,-4.099 -9.997,-8.135 -15.462,-12.109 -24.093,-17.138 -35.394,-40.487 -33.904,-70.044 0.497,-4.968 0.807,-9.998 0.931,-15.089 0.124,-5.092 0.435,-10.37 0.932,-15.835 0.745,-7.451 2.608,-14.717 5.588,-21.796 2.981,-7.078 6.893,-13.536 11.736,-19.373 4.844,-5.837 10.433,-10.557 16.766,-14.158 6.334,-3.602 13.227,-5.651 20.678,-6.148 6.458,-0.248 12.854,-0.248 19.188,0 6.334,0.249 12.605,1.242 18.815,2.981 11.922,3.229 20.988,9.066 27.198,17.511 6.209,8.445 10.308,18.38 12.295,29.806 1.242,8.445 1.987,17.076 2.235,25.894 0.249,8.817 0.373,17.573 0.373,26.266 0,6.955 -2.422,12.668 -7.265,17.139 -4.844,4.471 -10.743,6.706 -17.698,6.706 -6.458,0 -12.108,-2.111 -16.952,-6.334 -4.843,-4.222 -7.513,-9.811 -8.01,-16.765 -0.497,-5.465 -0.807,-10.743 -0.932,-15.835 -0.124,-5.092 -0.31,-10.122 -0.559,-15.089 -0.248,-1.49 -0.372,-2.981 -0.372,-4.471 0,-1.49 -0.124,-2.856 -0.373,-4.098 -1.49,-8.445 -5.837,-12.792 -13.04,-13.041 -4.719,-0.248 -8.755,0.559 -12.108,2.422 -3.354,1.863 -5.279,4.906 -5.775,9.128 -0.746,7.949 -1.18,15.773 -1.304,23.473 -0.125,7.699 0.062,15.523 0.558,23.472 0.249,2.235 1.367,4.533 3.354,6.892 1.987,2.36 3.974,4.533 5.961,6.52 4.968,3.975 9.997,7.887 15.089,11.737 5.092,3.849 10.246,7.762 15.462,11.736 28.564,20.615 43.467,48.559 44.709,83.829 0.248,8.197 0.559,16.269 0.931,24.217 0.373,7.949 0.683,16.021 0.932,24.218 0.248,7.203 -0.621,13.723 -2.608,19.56 -1.987,5.837 -4.719,10.929 -8.197,15.276 -3.477,4.346 -7.451,8.01 -11.922,10.991 -4.471,2.98 -9.066,5.216 -13.785,6.706 -9.687,3.229 -19.436,4.968 -29.248,5.216 -9.811,0.248 -19.436,-0.621 -28.874,-2.608 -10.432,-1.739 -19.126,-7.141 -26.08,-16.207 -6.955,-9.066 -10.929,-19.56 -11.923,-31.483 -0.745,-11.922 -0.931,-23.969 -0.559,-36.139 0.373,-12.171 0.435,-24.218 0.187,-36.14 z"
             style="fill-rule:nonzero"
             id="path8" /><path
             d="m 1638.11,1839.25 c 0.497,-4.471 1.925,-8.321 4.285,-11.55 2.359,-3.229 5.278,-5.775 8.755,-7.638 3.478,-1.863 7.266,-2.794 11.364,-2.794 4.098,0 8.134,0.993 12.109,2.98 8.693,4.471 13.04,11.674 13.04,21.61 v 39.12 c 0,5.216 0.372,10.432 1.117,15.648 1.491,9.19 6.831,13.91 16.021,14.158 2.981,0.249 5.465,-0.31 7.452,-1.676 1.987,-1.367 3.539,-3.105 4.657,-5.217 1.118,-2.111 1.925,-4.47 2.422,-7.078 0.496,-2.608 0.745,-5.03 0.745,-7.266 -0.497,-6.458 -0.932,-13.102 -1.304,-19.932 -0.373,-6.831 -0.808,-13.599 -1.304,-20.306 -0.497,-7.7 -2.608,-14.53 -6.334,-20.491 -3.726,-5.962 -8.693,-11.302 -14.903,-16.021 -5.216,-4.223 -10.246,-8.383 -15.089,-12.481 -4.844,-4.099 -9.998,-8.135 -15.462,-12.109 -24.093,-17.138 -35.395,-40.487 -33.905,-70.044 0.497,-4.968 0.808,-9.998 0.932,-15.089 0.124,-5.092 0.435,-10.37 0.931,-15.835 0.745,-7.451 2.608,-14.717 5.589,-21.796 2.981,-7.078 6.893,-13.536 11.736,-19.373 4.844,-5.837 10.432,-10.557 16.766,-14.158 6.334,-3.602 13.226,-5.651 20.678,-6.148 6.458,-0.248 12.854,-0.248 19.187,0 6.334,0.249 12.606,1.242 18.816,2.981 11.922,3.229 20.988,9.066 27.197,17.511 6.21,8.445 10.308,18.38 12.295,29.806 1.242,8.445 1.988,17.076 2.236,25.894 0.248,8.817 0.372,17.573 0.372,26.266 0,6.955 -2.421,12.668 -7.265,17.139 -4.843,4.471 -10.742,6.706 -17.697,6.706 -6.458,0 -12.109,-2.111 -16.952,-6.334 -4.844,-4.222 -7.514,-9.811 -8.011,-16.765 -0.496,-5.465 -0.807,-10.743 -0.931,-15.835 -0.124,-5.092 -0.31,-10.122 -0.559,-15.089 -0.248,-1.49 -0.372,-2.981 -0.372,-4.471 0,-1.49 -0.125,-2.856 -0.373,-4.098 -1.49,-8.445 -5.837,-12.792 -13.04,-13.041 -4.719,-0.248 -8.756,0.559 -12.109,2.422 -3.353,1.863 -5.278,4.906 -5.775,9.128 -0.745,7.949 -1.18,15.773 -1.304,23.473 -0.124,7.699 0.062,15.523 0.559,23.472 0.248,2.235 1.366,4.533 3.353,6.892 1.987,2.36 3.974,4.533 5.961,6.52 4.968,3.975 9.998,7.887 15.09,11.737 5.092,3.849 10.246,7.762 15.462,11.736 28.564,20.615 43.467,48.559 44.709,83.829 0.248,8.197 0.558,16.269 0.931,24.217 0.373,7.949 0.683,16.021 0.932,24.218 0.248,7.203 -0.621,13.723 -2.609,19.56 -1.987,5.837 -4.719,10.929 -8.196,15.276 -3.478,4.346 -7.452,8.01 -11.923,10.991 -4.47,2.98 -9.066,5.216 -13.785,6.706 -9.687,3.229 -19.436,4.968 -29.247,5.216 -9.811,0.248 -19.436,-0.621 -28.875,-2.608 -10.432,-1.739 -19.125,-7.141 -26.08,-16.207 -6.955,-9.066 -10.929,-19.56 -11.922,-31.483 -0.745,-11.922 -0.932,-23.969 -0.559,-36.139 0.373,-12.171 0.435,-24.218 0.186,-36.14 z"
             style="fill-rule:nonzero"
             id="path9" /></g><path
           d="m 1317.25,827.065 c 0,0 99.434,268.685 3.09,475.902 -96.344,207.216 -240.174,193.452 -283.758,209.51 -43.584,16.057 -233.214,-35.173 -295.914,-188.865 -62.7,-153.692 -29.056,-402.198 -29.056,-402.198 l -0.461,-24.821 c 0,0 -32.282,-64.196 -93.551,-168.398 -98.821,-169.975 -278.014,-475.25 -231.24,-548.6 46.775,-73.348 140.984,-93.352 234.534,-7.638 94.209,85.594 195.005,341.101 223.335,621.887 0,0 138.349,-56.86 285.921,-8.608 0,0 28.328,-218.226 144.937,-382.563 115.949,-164.277 279.992,-275.694 391.329,-247.628 111.338,28.068 86.963,145.789 -15.812,235.869 -102.773,90.079 -313.59,370.744 -333.354,436.151 z"
           style="fill:#ffffff"
           id="path10" /><path
           d="m 719.923,1392.3 -199.173,10.729 7.906,114.873 73.128,-3.516 -14.494,-53.83 69.174,-3.152 -5.27,52.921 72.468,-2.608 z"
           style="fill:#ffffff"
           id="path11" /><path
           id="pink"
           d="m 1068.57,1504.51 -69.175,-2.964 c 22.4,-1.187 13.836,-10.541 6.588,-15.153 -38.211,-24.573 -63.904,-91.573 -54.681,-94.604 0,0 65.881,20.094 81.034,20.489 24.375,0.725 62.586,-4.48 76.421,-28.593 3.294,-5.797 17.128,-28.46 10.54,-28.328 -110.019,2.241 -127.807,-61.401 -126.489,-89.926 0,0 100.796,28.856 126.489,-6.061 25.035,-34.983 -9.222,-148.429 25.694,-203.702 13.835,-21.873 34.257,-39.858 54.022,-56.855 28.329,-23.585 75.104,-32.743 83.01,-67.133 5.27,-23.321 -20.423,-61.532 -29.647,-72.139 -18.446,-21.674 -40.187,-40.977 -61.269,-60.214 14.494,-45.392 28.987,-90.981 48.093,-135.055 40.846,-96.053 105.409,-172.607 160.748,-264.707 54.681,-92.233 228.604,-136.768 192.372,-64.893 0,0 -83.01,95.329 -88.28,100.995 -108.703,129.915 -153.502,207.787 -232.558,342.644 12.517,12.846 24.376,25.759 34.917,39.857 9.882,13.704 17.788,48.027 24.375,63.378 31.624,70.162 30.306,141.51 30.964,210.223 1.318,133.144 -40.186,252.191 -149.548,342.973 -36.893,30.569 -90.915,65.485 -143.619,69.768 z M 915.727,1155.409 c 0,0 -102.773,5.798 -119.902,-82.548 -19.764,-106.66 48.092,-89.399 86.303,-49.08 38.21,40.319 33.599,131.628 33.599,131.628 z"
           style="fill:#f70484" /><path
           d="m 711.146,896.593 c 0,0 -32.282,-64.196 -93.551,-168.398 -98.821,-169.975 -278.014,-475.25 -231.24,-548.6 46.775,-73.348 140.984,-93.352 234.534,-7.638 94.209,85.594 195.005,341.101 223.335,621.887 0,0 138.349,-56.86 285.921,-8.608 0,0 28.328,-218.226 144.937,-382.563 115.949,-164.277 279.992,-275.694 391.329,-247.628 111.338,28.068 86.963,145.789 -15.812,235.869 -102.773,90.079 -313.59,370.744 -333.354,436.151"
           style="fill:none;stroke:#000000;stroke-width:43.17px"
           id="path12" /><path
           d="m 710.487,958.545 c 0,0 -48.751,287.15 58.634,411.662 100.138,115.418 208.183,141.544 297.78,134.27 88.939,-7.274 195.005,-91.595 251.663,-194.948 60.61,-111.175 62.586,-424.271 -48.751,-531.263 98.82,-183.979 229.923,-337.283 343.236,-459.491 0,0 -64.562,-91.958 -215.429,80.745 -150.207,172.763 -206.206,411.175 -206.206,411.175 55.998,34.189 79.056,78.683 90.256,132.634 0,0 -94.209,26.368 -138.349,112.266 -36.234,69.589 -21.082,202.89 -21.082,202.89 -41.504,39.038 -87.621,36.795 -135.713,8.244 0,0 2.635,104.567 148.23,83.654 -29.645,59.163 -102.113,90.079 -191.053,32.915 3.953,24.187 18.447,63.954 46.117,93.838 29.646,31.886 133.737,71.045 293.166,-113.114"
           style="fill:none;stroke:#000000;stroke-width:43.17px;stroke-miterlimit:3.75"
           id="path13" /><path
           d="m 893.635,1383.99 -372.885,19.038 7.906,114.873 73.128,-3.516 -14.494,-53.83 69.174,-3.152 -5.27,52.921 72.468,-2.608 -7.905,-115.417"
           style="fill:none;stroke:#000000;stroke-width:43.17px;stroke-miterlimit:1.5"
           id="path14" /><path
           d="m 1188.59,1368.45 182.161,-8.098 c 0,0 9.534,-171.907 110.827,-176.205 101.293,-4.299 148.326,68.515 106.888,121.848 -22.492,29.099 -77.581,67.789 -124.618,81.86 -38.901,11.794 -72.96,6.377 -78.831,-36.091 -13.262,-99.405 179.894,-52.863 205.527,-1.883 25.039,50.843 5.344,122.759 -94.559,113.807 -111.334,-10.014 -125.234,-103.336 -125.234,-103.336"
           style="fill:none;stroke:#000000;stroke-width:41.4px;stroke-miterlimit:1.5"
           id="path15" /><path
           d="m 1588.74,1194.2 c 0,0 32.878,-47.662 75.456,-32.767 41.198,14.411 42.391,58.127 3.908,79.353 0,0 73.813,7.124 69.435,69.104 -5.035,61.933 -68.398,68.963 -68.398,68.963 0,0 47.68,26.995 14.897,61.695 -34.073,36.064 -57.824,17.4 -78.513,2.347"
           style="fill:none;stroke:#000000;stroke-width:43.17px;stroke-miterlimit:1.5"
           id="path16" /><path
           d="m 918.011,1156.83 c 0,0 3.293,-90.382 -34.917,-130.633 -38.211,-40.372 -95.527,-53.769 -88.939,28.491 7.906,98.505 123.856,102.142 123.856,102.142 z"
           style="fill:none;stroke:#000000;stroke-width:43.17px;stroke-miterlimit:1.5"
           id="path17" /></g></g></g></svg>
